<svg xmlns:xlink="http://www.w3.org/1999/xlink" width="432pt" height="432pt" viewBox="0 0 432 432" xmlns="http://www.w3.org/2000/svg" version="1.1">
 <metadata>
  <rdf:rdf xmlns:dc="http://purl.org/dc/elements/1.1/" xmlns:cc="http://creativecommons.org/ns#" xmlns:rdf="http://www.w3.org/1999/02/22-rdf-syntax-ns#">
   <cc:work>
    <dc:type rdf:resource="http://purl.org/dc/dcmitype/StillImage"></dc:type>
    <dc:date>2023-04-04T22:13:21.468389</dc:date>
    <dc:format>image/svg+xml</dc:format>
    <dc:creator>
     <cc:agent>
      <dc:title>Matplotlib v3.7.1, https://matplotlib.org/</dc:title>
     </cc:agent>
    </dc:creator>
   </cc:work>
  </rdf:rdf>
 </metadata>
 <defs>
  <style type="text/css">*{stroke-linejoin: round; stroke-linecap: butt}</style>
 </defs>
 <g id="figure_1">
  <g id="patch_1">
   <path d="M 0 432 
L 432 432 
L 432 0 
L 0 0 
z
" style="fill: #ffffff"></path>
  </g>
  <g id="axes_1">
   <g id="patch_2">
    <path d="M 96.619709 383.073354 
L 366.458418 383.073354 
L 366.458418 113.234646 
L 96.619709 113.234646 
z
" style="fill: #ffffff"></path>
   </g>
   <g id="matplotlib.axis_1">
    <g id="xtick_1">
     <g id="line2d_1">
      <path d="M 141.592827 383.073354 
L 141.592827 113.234646 
" clip-path="url(#p0931bad8cb)" style="fill: none; stroke: #000000; stroke-opacity: 0.1; stroke-width: 0.5; stroke-linecap: square"></path>
     </g>
     <g id="line2d_2">
      <defs>
       <path id="m9756b23515" d="M 0 0 
L 0 -2.5 
" style="stroke: #000000; stroke-width: 0.5"></path>
      </defs>
      <g>
       <use xlink:href="#m9756b23515" x="141.592827" y="383.073354" style="stroke: #000000; stroke-width: 0.5"></use>
      </g>
     </g>
     <g id="text_1">
      <!-- $5$ -->
      <g transform="translate(136.792827 397.971011) scale(0.15 -0.15)">
       <defs>
        <path id="DejaVuSans-35" d="M 691 4666 
L 3169 4666 
L 3169 4134 
L 1269 4134 
L 1269 2991 
Q 1406 3038 1543 3061 
Q 1681 3084 1819 3084 
Q 2600 3084 3056 2656 
Q 3513 2228 3513 1497 
Q 3513 744 3044 326 
Q 2575 -91 1722 -91 
Q 1428 -91 1123 -41 
Q 819 9 494 109 
L 494 744 
Q 775 591 1075 516 
Q 1375 441 1709 441 
Q 2250 441 2565 725 
Q 2881 1009 2881 1497 
Q 2881 1984 2565 2268 
Q 2250 2553 1709 2553 
Q 1456 2553 1204 2497 
Q 953 2441 691 2322 
L 691 4666 
z
" transform="scale(0.015625)"></path>
       </defs>
       <use xlink:href="#DejaVuSans-35" transform="translate(0 0.09375)"></use>
      </g>
     </g>
    </g>
    <g id="xtick_2">
     <g id="line2d_3">
      <path d="M 197.809225 383.073354 
L 197.809225 113.234646 
" clip-path="url(#p0931bad8cb)" style="fill: none; stroke: #000000; stroke-opacity: 0.1; stroke-width: 0.5; stroke-linecap: square"></path>
     </g>
     <g id="line2d_4">
      <g>
       <use xlink:href="#m9756b23515" x="197.809225" y="383.073354" style="stroke: #000000; stroke-width: 0.5"></use>
      </g>
     </g>
     <g id="text_2">
      <!-- $10$ -->
      <g transform="translate(188.209225 397.971011) scale(0.15 -0.15)">
       <defs>
        <path id="DejaVuSans-31" d="M 794 531 
L 1825 531 
L 1825 4091 
L 703 3866 
L 703 4441 
L 1819 4666 
L 2450 4666 
L 2450 531 
L 3481 531 
L 3481 0 
L 794 0 
L 794 531 
z
" transform="scale(0.015625)"></path>
        <path id="DejaVuSans-30" d="M 2034 4250 
Q 1547 4250 1301 3770 
Q 1056 3291 1056 2328 
Q 1056 1369 1301 889 
Q 1547 409 2034 409 
Q 2525 409 2770 889 
Q 3016 1369 3016 2328 
Q 3016 3291 2770 3770 
Q 2525 4250 2034 4250 
z
M 2034 4750 
Q 2819 4750 3233 4129 
Q 3647 3509 3647 2328 
Q 3647 1150 3233 529 
Q 2819 -91 2034 -91 
Q 1250 -91 836 529 
Q 422 1150 422 2328 
Q 422 3509 836 4129 
Q 1250 4750 2034 4750 
z
" transform="scale(0.015625)"></path>
       </defs>
       <use xlink:href="#DejaVuSans-31" transform="translate(0 0.78125)"></use>
       <use xlink:href="#DejaVuSans-30" transform="translate(63.623047 0.78125)"></use>
      </g>
     </g>
    </g>
    <g id="xtick_3">
     <g id="line2d_5">
      <path d="M 254.025622 383.073354 
L 254.025622 113.234646 
" clip-path="url(#p0931bad8cb)" style="fill: none; stroke: #000000; stroke-opacity: 0.1; stroke-width: 0.5; stroke-linecap: square"></path>
     </g>
     <g id="line2d_6">
      <g>
       <use xlink:href="#m9756b23515" x="254.025622" y="383.073354" style="stroke: #000000; stroke-width: 0.5"></use>
      </g>
     </g>
     <g id="text_3">
      <!-- $15$ -->
      <g transform="translate(244.425622 397.971011) scale(0.15 -0.15)">
       <use xlink:href="#DejaVuSans-31" transform="translate(0 0.09375)"></use>
       <use xlink:href="#DejaVuSans-35" transform="translate(63.623047 0.09375)"></use>
      </g>
     </g>
    </g>
    <g id="xtick_4">
     <g id="line2d_7">
      <path d="M 310.24202 383.073354 
L 310.24202 113.234646 
" clip-path="url(#p0931bad8cb)" style="fill: none; stroke: #000000; stroke-opacity: 0.1; stroke-width: 0.5; stroke-linecap: square"></path>
     </g>
     <g id="line2d_8">
      <g>
       <use xlink:href="#m9756b23515" x="310.24202" y="383.073354" style="stroke: #000000; stroke-width: 0.5"></use>
      </g>
     </g>
     <g id="text_4">
      <!-- $20$ -->
      <g transform="translate(300.64202 397.971011) scale(0.15 -0.15)">
       <defs>
        <path id="DejaVuSans-32" d="M 1228 531 
L 3431 531 
L 3431 0 
L 469 0 
L 469 531 
Q 828 903 1448 1529 
Q 2069 2156 2228 2338 
Q 2531 2678 2651 2914 
Q 2772 3150 2772 3378 
Q 2772 3750 2511 3984 
Q 2250 4219 1831 4219 
Q 1534 4219 1204 4116 
Q 875 4013 500 3803 
L 500 4441 
Q 881 4594 1212 4672 
Q 1544 4750 1819 4750 
Q 2544 4750 2975 4387 
Q 3406 4025 3406 3419 
Q 3406 3131 3298 2873 
Q 3191 2616 2906 2266 
Q 2828 2175 2409 1742 
Q 1991 1309 1228 531 
z
" transform="scale(0.015625)"></path>
       </defs>
       <use xlink:href="#DejaVuSans-32" transform="translate(0 0.78125)"></use>
       <use xlink:href="#DejaVuSans-30" transform="translate(63.623047 0.78125)"></use>
      </g>
     </g>
    </g>
    <g id="xtick_5">
     <g id="line2d_9">
      <path d="M 366.458418 383.073354 
L 366.458418 113.234646 
" clip-path="url(#p0931bad8cb)" style="fill: none; stroke: #000000; stroke-opacity: 0.1; stroke-width: 0.5; stroke-linecap: square"></path>
     </g>
     <g id="line2d_10">
      <g>
       <use xlink:href="#m9756b23515" x="366.458418" y="383.073354" style="stroke: #000000; stroke-width: 0.5"></use>
      </g>
     </g>
     <g id="text_5">
      <!-- $25$ -->
      <g transform="translate(356.858418 397.971011) scale(0.15 -0.15)">
       <use xlink:href="#DejaVuSans-32" transform="translate(0 0.78125)"></use>
       <use xlink:href="#DejaVuSans-35" transform="translate(63.623047 0.78125)"></use>
      </g>
     </g>
    </g>
    <g id="text_6">
     <!-- $P_{SOL} B_θ / R_{omp}#$ -->
     <g transform="translate(173.739063 419.690542) scale(0.2 -0.2)">
      <defs>
       <path id="DejaVuSans-Oblique-50" d="M 1081 4666 
L 2541 4666 
Q 3178 4666 3512 4369 
Q 3847 4072 3847 3500 
Q 3847 2731 3353 2303 
Q 2859 1875 1966 1875 
L 1172 1875 
L 806 0 
L 172 0 
L 1081 4666 
z
M 1613 4147 
L 1275 2394 
L 2069 2394 
Q 2606 2394 2893 2669 
Q 3181 2944 3181 3456 
Q 3181 3784 2986 3965 
Q 2791 4147 2438 4147 
L 1613 4147 
z
" transform="scale(0.015625)"></path>
       <path id="DejaVuSans-Oblique-53" d="M 3859 4513 
L 3738 3897 
Q 3422 4066 3111 4152 
Q 2800 4238 2509 4238 
Q 1944 4238 1609 3991 
Q 1275 3744 1275 3334 
Q 1275 3109 1398 2989 
Q 1522 2869 2034 2731 
L 2413 2638 
Q 3053 2472 3303 2217 
Q 3553 1963 3553 1503 
Q 3553 797 2998 353 
Q 2444 -91 1538 -91 
Q 1166 -91 791 -17 
Q 416 56 38 206 
L 166 856 
Q 513 641 861 531 
Q 1209 422 1556 422 
Q 2147 422 2503 684 
Q 2859 947 2859 1369 
Q 2859 1650 2717 1795 
Q 2575 1941 2106 2059 
L 1728 2156 
Q 1081 2325 845 2545 
Q 609 2766 609 3163 
Q 609 3859 1145 4304 
Q 1681 4750 2541 4750 
Q 2875 4750 3203 4690 
Q 3531 4631 3859 4513 
z
" transform="scale(0.015625)"></path>
       <path id="DejaVuSans-Oblique-4f" d="M 2919 4238 
Q 2400 4238 2003 3986 
Q 1606 3734 1313 3219 
Q 1125 2891 1026 2522 
Q 928 2153 928 1778 
Q 928 1128 1239 775 
Q 1550 422 2119 422 
Q 2631 422 3032 676 
Q 3434 931 3719 1434 
Q 3909 1772 4009 2142 
Q 4109 2513 4109 2881 
Q 4109 3528 3796 3883 
Q 3484 4238 2919 4238 
z
M 2100 -91 
Q 1241 -91 748 418 
Q 256 928 256 1813 
Q 256 2319 448 2847 
Q 641 3375 978 3788 
Q 1375 4272 1862 4511 
Q 2350 4750 2938 4750 
Q 3794 4750 4287 4245 
Q 4781 3741 4781 2869 
Q 4781 2331 4593 1812 
Q 4406 1294 4056 872 
Q 3656 384 3173 146 
Q 2691 -91 2100 -91 
z
" transform="scale(0.015625)"></path>
       <path id="DejaVuSans-Oblique-4c" d="M 1075 4666 
L 1709 4666 
L 909 525 
L 3181 525 
L 3078 0 
L 172 0 
L 1075 4666 
z
" transform="scale(0.015625)"></path>
       <path id="DejaVuSans-Oblique-42" d="M 1081 4666 
L 2694 4666 
Q 3350 4666 3675 4422 
Q 4000 4178 4000 3688 
Q 4000 3238 3720 2911 
Q 3441 2584 2988 2516 
Q 3375 2428 3569 2181 
Q 3763 1934 3763 1522 
Q 3763 819 3242 409 
Q 2722 0 1819 0 
L 172 0 
L 1081 4666 
z
M 1234 2228 
L 903 519 
L 1919 519 
Q 2491 519 2800 781 
Q 3109 1044 3109 1522 
Q 3109 1891 2904 2059 
Q 2700 2228 2247 2228 
L 1234 2228 
z
M 1606 4147 
L 1331 2741 
L 2272 2741 
Q 2775 2741 3058 2959 
Q 3341 3178 3341 3566 
Q 3341 3869 3150 4008 
Q 2959 4147 2541 4147 
L 1606 4147 
z
" transform="scale(0.015625)"></path>
       <path id="DejaVuSans-Oblique-3b8" d="M 2913 2219 
L 925 2219 
Q 791 1284 928 888 
Q 1100 400 1566 400 
Q 2034 400 2391 891 
Q 2703 1322 2913 2219 
z
M 3009 2750 
Q 3094 3638 2984 3950 
Q 2813 4444 2353 4444 
Q 1875 4444 1525 3956 
Q 1250 3563 1034 2750 
L 3009 2750 
z
M 2444 4913 
Q 3194 4913 3494 4250 
Q 3794 3591 3566 2422 
Q 3341 1256 2781 594 
Q 2225 -72 1475 -72 
Q 722 -72 425 594 
Q 128 1256 353 2422 
Q 581 3591 1134 4250 
Q 1691 4913 2444 4913 
z
" transform="scale(0.015625)"></path>
       <path id="DejaVuSans-2f" d="M 1625 4666 
L 2156 4666 
L 531 -594 
L 0 -594 
L 1625 4666 
z
" transform="scale(0.015625)"></path>
       <path id="DejaVuSans-Oblique-52" d="M 1613 4147 
L 1294 2491 
L 2106 2491 
Q 2584 2491 2879 2755 
Q 3175 3019 3175 3444 
Q 3175 3784 2976 3965 
Q 2778 4147 2406 4147 
L 1613 4147 
z
M 2772 2241 
Q 2972 2194 3105 2009 
Q 3238 1825 3413 1275 
L 3809 0 
L 3144 0 
L 2778 1197 
Q 2638 1659 2453 1815 
Q 2269 1972 1888 1972 
L 1191 1972 
L 806 0 
L 172 0 
L 1081 4666 
L 2503 4666 
Q 3150 4666 3495 4373 
Q 3841 4081 3841 3531 
Q 3841 3044 3547 2687 
Q 3253 2331 2772 2241 
z
" transform="scale(0.015625)"></path>
       <path id="DejaVuSans-Oblique-6f" d="M 1625 -91 
Q 1009 -91 651 289 
Q 294 669 294 1325 
Q 294 1706 417 2101 
Q 541 2497 738 2766 
Q 1047 3184 1428 3384 
Q 1809 3584 2291 3584 
Q 2888 3584 3255 3212 
Q 3622 2841 3622 2241 
Q 3622 1825 3500 1412 
Q 3378 1000 3181 728 
Q 2875 309 2494 109 
Q 2113 -91 1625 -91 
z
M 891 1344 
Q 891 869 1089 633 
Q 1288 397 1691 397 
Q 2269 397 2648 901 
Q 3028 1406 3028 2181 
Q 3028 2634 2825 2865 
Q 2622 3097 2228 3097 
Q 1903 3097 1650 2945 
Q 1397 2794 1197 2484 
Q 1050 2253 970 1956 
Q 891 1659 891 1344 
z
" transform="scale(0.015625)"></path>
       <path id="DejaVuSans-Oblique-6d" d="M 5747 2113 
L 5338 0 
L 4763 0 
L 5166 2094 
Q 5191 2228 5203 2325 
Q 5216 2422 5216 2491 
Q 5216 2772 5059 2928 
Q 4903 3084 4622 3084 
Q 4203 3084 3875 2770 
Q 3547 2456 3450 1953 
L 3066 0 
L 2491 0 
L 2900 2094 
Q 2925 2209 2937 2307 
Q 2950 2406 2950 2484 
Q 2950 2769 2794 2926 
Q 2638 3084 2363 3084 
Q 1938 3084 1609 2770 
Q 1281 2456 1184 1953 
L 800 0 
L 225 0 
L 909 3500 
L 1484 3500 
L 1375 2956 
Q 1609 3263 1923 3423 
Q 2238 3584 2597 3584 
Q 2978 3584 3223 3384 
Q 3469 3184 3519 2828 
Q 3781 3197 4126 3390 
Q 4472 3584 4856 3584 
Q 5306 3584 5551 3325 
Q 5797 3066 5797 2591 
Q 5797 2488 5784 2364 
Q 5772 2241 5747 2113 
z
" transform="scale(0.015625)"></path>
       <path id="DejaVuSans-Oblique-70" d="M 3175 2156 
Q 3175 2616 2975 2859 
Q 2775 3103 2400 3103 
Q 2144 3103 1911 2972 
Q 1678 2841 1497 2591 
Q 1319 2344 1212 1994 
Q 1106 1644 1106 1300 
Q 1106 863 1306 627 
Q 1506 391 1875 391 
Q 2147 391 2380 519 
Q 2613 647 2778 891 
Q 2956 1147 3065 1494 
Q 3175 1841 3175 2156 
z
M 1394 2969 
Q 1625 3272 1939 3428 
Q 2253 3584 2638 3584 
Q 3175 3584 3472 3232 
Q 3769 2881 3769 2247 
Q 3769 1728 3584 1258 
Q 3400 788 3053 416 
Q 2822 169 2531 39 
Q 2241 -91 1919 -91 
Q 1547 -91 1294 64 
Q 1041 219 916 525 
L 556 -1331 
L -19 -1331 
L 922 3500 
L 1497 3500 
L 1394 2969 
z
" transform="scale(0.015625)"></path>
      </defs>
      <use xlink:href="#DejaVuSans-Oblique-50" transform="translate(0 0.09375)"></use>
      <use xlink:href="#DejaVuSans-Oblique-53" transform="translate(60.302734 -16.3125) scale(0.7)"></use>
      <use xlink:href="#DejaVuSans-Oblique-4f" transform="translate(104.736328 -16.3125) scale(0.7)"></use>
      <use xlink:href="#DejaVuSans-Oblique-4c" transform="translate(159.833984 -16.3125) scale(0.7)"></use>
      <use xlink:href="#DejaVuSans-Oblique-42" transform="translate(201.567383 0.09375)"></use>
      <use xlink:href="#DejaVuSans-Oblique-3b8" transform="translate(270.170898 -16.3125) scale(0.7)"></use>
      <use xlink:href="#DejaVuSans-2f" transform="translate(315.732422 0.09375)"></use>
      <use xlink:href="#DejaVuSans-Oblique-52" transform="translate(349.423828 0.09375)"></use>
      <use xlink:href="#DejaVuSans-Oblique-6f" transform="translate(418.90625 -16.3125) scale(0.7)"></use>
      <use xlink:href="#DejaVuSans-Oblique-6d" transform="translate(461.733398 -16.3125) scale(0.7)"></use>
      <use xlink:href="#DejaVuSans-Oblique-70" transform="translate(529.921875 -16.3125) scale(0.7)"></use>
     </g>
    </g>
   </g>
   <g id="matplotlib.axis_2">
    <g id="ytick_1">
     <g id="line2d_11">
      <path d="M 96.619709 383.073354 
L 366.458418 383.073354 
" clip-path="url(#p0931bad8cb)" style="fill: none; stroke: #000000; stroke-opacity: 0.1; stroke-width: 0.5; stroke-linecap: square"></path>
     </g>
     <g id="line2d_12">
      <defs>
       <path id="m5463565d76" d="M 0 0 
L 2.5 0 
" style="stroke: #000000; stroke-width: 0.5"></path>
      </defs>
      <g>
       <use xlink:href="#m5463565d76" x="96.619709" y="383.073354" style="stroke: #000000; stroke-width: 0.5"></use>
      </g>
     </g>
     <g id="text_7">
      <!-- $1$ -->
      <g transform="translate(83.519709 388.772182) scale(0.15 -0.15)">
       <use xlink:href="#DejaVuSans-31" transform="translate(0 0.09375)"></use>
      </g>
     </g>
    </g>
    <g id="ytick_2">
     <g id="line2d_13">
      <path d="M 96.619709 315.613677 
L 366.458418 315.613677 
" clip-path="url(#p0931bad8cb)" style="fill: none; stroke: #000000; stroke-opacity: 0.1; stroke-width: 0.5; stroke-linecap: square"></path>
     </g>
     <g id="line2d_14">
      <g>
       <use xlink:href="#m5463565d76" x="96.619709" y="315.613677" style="stroke: #000000; stroke-width: 0.5"></use>
      </g>
     </g>
     <g id="text_8">
      <!-- $2$ -->
      <g transform="translate(83.519709 321.312505) scale(0.15 -0.15)">
       <use xlink:href="#DejaVuSans-32" transform="translate(0 0.78125)"></use>
      </g>
     </g>
    </g>
    <g id="ytick_3">
     <g id="line2d_15">
      <path d="M 96.619709 248.154 
L 366.458418 248.154 
" clip-path="url(#p0931bad8cb)" style="fill: none; stroke: #000000; stroke-opacity: 0.1; stroke-width: 0.5; stroke-linecap: square"></path>
     </g>
     <g id="line2d_16">
      <g>
       <use xlink:href="#m5463565d76" x="96.619709" y="248.154" style="stroke: #000000; stroke-width: 0.5"></use>
      </g>
     </g>
     <g id="text_9">
      <!-- $3$ -->
      <g transform="translate(83.519709 253.852828) scale(0.15 -0.15)">
       <defs>
        <path id="DejaVuSans-33" d="M 2597 2516 
Q 3050 2419 3304 2112 
Q 3559 1806 3559 1356 
Q 3559 666 3084 287 
Q 2609 -91 1734 -91 
Q 1441 -91 1130 -33 
Q 819 25 488 141 
L 488 750 
Q 750 597 1062 519 
Q 1375 441 1716 441 
Q 2309 441 2620 675 
Q 2931 909 2931 1356 
Q 2931 1769 2642 2001 
Q 2353 2234 1838 2234 
L 1294 2234 
L 1294 2753 
L 1863 2753 
Q 2328 2753 2575 2939 
Q 2822 3125 2822 3475 
Q 2822 3834 2567 4026 
Q 2313 4219 1838 4219 
Q 1578 4219 1281 4162 
Q 984 4106 628 3988 
L 628 4550 
Q 988 4650 1302 4700 
Q 1616 4750 1894 4750 
Q 2613 4750 3031 4423 
Q 3450 4097 3450 3541 
Q 3450 3153 3228 2886 
Q 3006 2619 2597 2516 
z
" transform="scale(0.015625)"></path>
       </defs>
       <use xlink:href="#DejaVuSans-33" transform="translate(0 0.78125)"></use>
      </g>
     </g>
    </g>
    <g id="ytick_4">
     <g id="line2d_17">
      <path d="M 96.619709 180.694323 
L 366.458418 180.694323 
" clip-path="url(#p0931bad8cb)" style="fill: none; stroke: #000000; stroke-opacity: 0.1; stroke-width: 0.5; stroke-linecap: square"></path>
     </g>
     <g id="line2d_18">
      <g>
       <use xlink:href="#m5463565d76" x="96.619709" y="180.694323" style="stroke: #000000; stroke-width: 0.5"></use>
      </g>
     </g>
     <g id="text_10">
      <!-- $4$ -->
      <g transform="translate(83.519709 186.393151) scale(0.15 -0.15)">
       <defs>
        <path id="DejaVuSans-34" d="M 2419 4116 
L 825 1625 
L 2419 1625 
L 2419 4116 
z
M 2253 4666 
L 3047 4666 
L 3047 1625 
L 3713 1625 
L 3713 1100 
L 3047 1100 
L 3047 0 
L 2419 0 
L 2419 1100 
L 313 1100 
L 313 1709 
L 2253 4666 
z
" transform="scale(0.015625)"></path>
       </defs>
       <use xlink:href="#DejaVuSans-34" transform="translate(0 0.09375)"></use>
      </g>
     </g>
    </g>
    <g id="ytick_5">
     <g id="line2d_19">
      <path d="M 96.619709 113.234646 
L 366.458418 113.234646 
" clip-path="url(#p0931bad8cb)" style="fill: none; stroke: #000000; stroke-opacity: 0.1; stroke-width: 0.5; stroke-linecap: square"></path>
     </g>
     <g id="line2d_20">
      <g>
       <use xlink:href="#m5463565d76" x="96.619709" y="113.234646" style="stroke: #000000; stroke-width: 0.5"></use>
      </g>
     </g>
     <g id="text_11">
      <!-- $5$ -->
      <g transform="translate(83.519709 118.933474) scale(0.15 -0.15)">
       <use xlink:href="#DejaVuSans-35" transform="translate(0 0.09375)"></use>
      </g>
     </g>
    </g>
    <g id="text_12">
     <!-- $Z_{eff}#$ at separatrix upstream -->
     <g transform="translate(75.319709 382.854) rotate(-90) scale(0.2 -0.2)">
      <defs>
       <path id="DejaVuSans-Oblique-5a" d="M 838 4666 
L 4500 4666 
L 4409 4184 
L 794 531 
L 3769 531 
L 3669 0 
L -141 0 
L -50 481 
L 3566 4134 
L 738 4134 
L 838 4666 
z
" transform="scale(0.015625)"></path>
       <path id="DejaVuSans-Oblique-65" d="M 3078 2063 
Q 3088 2113 3092 2166 
Q 3097 2219 3097 2272 
Q 3097 2653 2873 2875 
Q 2650 3097 2266 3097 
Q 1838 3097 1509 2826 
Q 1181 2556 1013 2059 
L 3078 2063 
z
M 3578 1613 
L 903 1613 
Q 884 1494 878 1425 
Q 872 1356 872 1306 
Q 872 872 1139 634 
Q 1406 397 1894 397 
Q 2269 397 2603 481 
Q 2938 566 3225 728 
L 3116 159 
Q 2806 34 2476 -28 
Q 2147 -91 1806 -91 
Q 1078 -91 686 257 
Q 294 606 294 1247 
Q 294 1794 489 2264 
Q 684 2734 1063 3103 
Q 1306 3334 1642 3459 
Q 1978 3584 2356 3584 
Q 2950 3584 3301 3228 
Q 3653 2872 3653 2272 
Q 3653 2128 3634 1964 
Q 3616 1800 3578 1613 
z
" transform="scale(0.015625)"></path>
       <path id="DejaVuSans-Oblique-66" d="M 3059 4863 
L 2969 4384 
L 2419 4384 
Q 2106 4384 1964 4261 
Q 1822 4138 1753 3809 
L 1691 3500 
L 2638 3500 
L 2553 3053 
L 1606 3053 
L 1013 0 
L 434 0 
L 1031 3053 
L 481 3053 
L 563 3500 
L 1113 3500 
L 1159 3744 
Q 1278 4363 1576 4613 
Q 1875 4863 2516 4863 
L 3059 4863 
z
" transform="scale(0.015625)"></path>
       <path id="DejaVuSans-20" transform="scale(0.015625)"></path>
       <path id="DejaVuSans-61" d="M 2194 1759 
Q 1497 1759 1228 1600 
Q 959 1441 959 1056 
Q 959 750 1161 570 
Q 1363 391 1709 391 
Q 2188 391 2477 730 
Q 2766 1069 2766 1631 
L 2766 1759 
L 2194 1759 
z
M 3341 1997 
L 3341 0 
L 2766 0 
L 2766 531 
Q 2569 213 2275 61 
Q 1981 -91 1556 -91 
Q 1019 -91 701 211 
Q 384 513 384 1019 
Q 384 1609 779 1909 
Q 1175 2209 1959 2209 
L 2766 2209 
L 2766 2266 
Q 2766 2663 2505 2880 
Q 2244 3097 1772 3097 
Q 1472 3097 1187 3025 
Q 903 2953 641 2809 
L 641 3341 
Q 956 3463 1253 3523 
Q 1550 3584 1831 3584 
Q 2591 3584 2966 3190 
Q 3341 2797 3341 1997 
z
" transform="scale(0.015625)"></path>
       <path id="DejaVuSans-74" d="M 1172 4494 
L 1172 3500 
L 2356 3500 
L 2356 3053 
L 1172 3053 
L 1172 1153 
Q 1172 725 1289 603 
Q 1406 481 1766 481 
L 2356 481 
L 2356 0 
L 1766 0 
Q 1100 0 847 248 
Q 594 497 594 1153 
L 594 3053 
L 172 3053 
L 172 3500 
L 594 3500 
L 594 4494 
L 1172 4494 
z
" transform="scale(0.015625)"></path>
       <path id="DejaVuSans-73" d="M 2834 3397 
L 2834 2853 
Q 2591 2978 2328 3040 
Q 2066 3103 1784 3103 
Q 1356 3103 1142 2972 
Q 928 2841 928 2578 
Q 928 2378 1081 2264 
Q 1234 2150 1697 2047 
L 1894 2003 
Q 2506 1872 2764 1633 
Q 3022 1394 3022 966 
Q 3022 478 2636 193 
Q 2250 -91 1575 -91 
Q 1294 -91 989 -36 
Q 684 19 347 128 
L 347 722 
Q 666 556 975 473 
Q 1284 391 1588 391 
Q 1994 391 2212 530 
Q 2431 669 2431 922 
Q 2431 1156 2273 1281 
Q 2116 1406 1581 1522 
L 1381 1569 
Q 847 1681 609 1914 
Q 372 2147 372 2553 
Q 372 3047 722 3315 
Q 1072 3584 1716 3584 
Q 2034 3584 2315 3537 
Q 2597 3491 2834 3397 
z
" transform="scale(0.015625)"></path>
       <path id="DejaVuSans-65" d="M 3597 1894 
L 3597 1613 
L 953 1613 
Q 991 1019 1311 708 
Q 1631 397 2203 397 
Q 2534 397 2845 478 
Q 3156 559 3463 722 
L 3463 178 
Q 3153 47 2828 -22 
Q 2503 -91 2169 -91 
Q 1331 -91 842 396 
Q 353 884 353 1716 
Q 353 2575 817 3079 
Q 1281 3584 2069 3584 
Q 2775 3584 3186 3129 
Q 3597 2675 3597 1894 
z
M 3022 2063 
Q 3016 2534 2758 2815 
Q 2500 3097 2075 3097 
Q 1594 3097 1305 2825 
Q 1016 2553 972 2059 
L 3022 2063 
z
" transform="scale(0.015625)"></path>
       <path id="DejaVuSans-70" d="M 1159 525 
L 1159 -1331 
L 581 -1331 
L 581 3500 
L 1159 3500 
L 1159 2969 
Q 1341 3281 1617 3432 
Q 1894 3584 2278 3584 
Q 2916 3584 3314 3078 
Q 3713 2572 3713 1747 
Q 3713 922 3314 415 
Q 2916 -91 2278 -91 
Q 1894 -91 1617 61 
Q 1341 213 1159 525 
z
M 3116 1747 
Q 3116 2381 2855 2742 
Q 2594 3103 2138 3103 
Q 1681 3103 1420 2742 
Q 1159 2381 1159 1747 
Q 1159 1113 1420 752 
Q 1681 391 2138 391 
Q 2594 391 2855 752 
Q 3116 1113 3116 1747 
z
" transform="scale(0.015625)"></path>
       <path id="DejaVuSans-72" d="M 2631 2963 
Q 2534 3019 2420 3045 
Q 2306 3072 2169 3072 
Q 1681 3072 1420 2755 
Q 1159 2438 1159 1844 
L 1159 0 
L 581 0 
L 581 3500 
L 1159 3500 
L 1159 2956 
Q 1341 3275 1631 3429 
Q 1922 3584 2338 3584 
Q 2397 3584 2469 3576 
Q 2541 3569 2628 3553 
L 2631 2963 
z
" transform="scale(0.015625)"></path>
       <path id="DejaVuSans-69" d="M 603 3500 
L 1178 3500 
L 1178 0 
L 603 0 
L 603 3500 
z
M 603 4863 
L 1178 4863 
L 1178 4134 
L 603 4134 
L 603 4863 
z
" transform="scale(0.015625)"></path>
       <path id="DejaVuSans-78" d="M 3513 3500 
L 2247 1797 
L 3578 0 
L 2900 0 
L 1881 1375 
L 863 0 
L 184 0 
L 1544 1831 
L 300 3500 
L 978 3500 
L 1906 2253 
L 2834 3500 
L 3513 3500 
z
" transform="scale(0.015625)"></path>
       <path id="DejaVuSans-75" d="M 544 1381 
L 544 3500 
L 1119 3500 
L 1119 1403 
Q 1119 906 1312 657 
Q 1506 409 1894 409 
Q 2359 409 2629 706 
Q 2900 1003 2900 1516 
L 2900 3500 
L 3475 3500 
L 3475 0 
L 2900 0 
L 2900 538 
Q 2691 219 2414 64 
Q 2138 -91 1772 -91 
Q 1169 -91 856 284 
Q 544 659 544 1381 
z
M 1991 3584 
L 1991 3584 
z
" transform="scale(0.015625)"></path>
       <path id="DejaVuSans-6d" d="M 3328 2828 
Q 3544 3216 3844 3400 
Q 4144 3584 4550 3584 
Q 5097 3584 5394 3201 
Q 5691 2819 5691 2113 
L 5691 0 
L 5113 0 
L 5113 2094 
Q 5113 2597 4934 2840 
Q 4756 3084 4391 3084 
Q 3944 3084 3684 2787 
Q 3425 2491 3425 1978 
L 3425 0 
L 2847 0 
L 2847 2094 
Q 2847 2600 2669 2842 
Q 2491 3084 2119 3084 
Q 1678 3084 1418 2786 
Q 1159 2488 1159 1978 
L 1159 0 
L 581 0 
L 581 3500 
L 1159 3500 
L 1159 2956 
Q 1356 3278 1631 3431 
Q 1906 3584 2284 3584 
Q 2666 3584 2933 3390 
Q 3200 3197 3328 2828 
z
" transform="scale(0.015625)"></path>
      </defs>
      <use xlink:href="#DejaVuSans-Oblique-5a" transform="translate(0 0.015625)"></use>
      <use xlink:href="#DejaVuSans-Oblique-65" transform="translate(68.505859 -16.390625) scale(0.7)"></use>
      <use xlink:href="#DejaVuSans-Oblique-66" transform="translate(111.572266 -16.390625) scale(0.7)"></use>
      <use xlink:href="#DejaVuSans-Oblique-66" transform="translate(136.21582 -16.390625) scale(0.7)"></use>
      <use xlink:href="#DejaVuSans-20" transform="translate(163.59375 0.015625)"></use>
      <use xlink:href="#DejaVuSans-61" transform="translate(195.380859 0.015625)"></use>
      <use xlink:href="#DejaVuSans-74" transform="translate(256.660156 0.015625)"></use>
      <use xlink:href="#DejaVuSans-20" transform="translate(295.869141 0.015625)"></use>
      <use xlink:href="#DejaVuSans-73" transform="translate(327.65625 0.015625)"></use>
      <use xlink:href="#DejaVuSans-65" transform="translate(379.755859 0.015625)"></use>
      <use xlink:href="#DejaVuSans-70" transform="translate(441.279297 0.015625)"></use>
      <use xlink:href="#DejaVuSans-61" transform="translate(504.755859 0.015625)"></use>
      <use xlink:href="#DejaVuSans-72" transform="translate(566.035156 0.015625)"></use>
      <use xlink:href="#DejaVuSans-61" transform="translate(607.148438 0.015625)"></use>
      <use xlink:href="#DejaVuSans-74" transform="translate(668.427734 0.015625)"></use>
      <use xlink:href="#DejaVuSans-72" transform="translate(707.636719 0.015625)"></use>
      <use xlink:href="#DejaVuSans-69" transform="translate(748.75 0.015625)"></use>
      <use xlink:href="#DejaVuSans-78" transform="translate(776.533203 0.015625)"></use>
      <use xlink:href="#DejaVuSans-20" transform="translate(835.712891 0.015625)"></use>
      <use xlink:href="#DejaVuSans-75" transform="translate(867.5 0.015625)"></use>
      <use xlink:href="#DejaVuSans-70" transform="translate(930.878906 0.015625)"></use>
      <use xlink:href="#DejaVuSans-73" transform="translate(994.355469 0.015625)"></use>
      <use xlink:href="#DejaVuSans-74" transform="translate(1046.455078 0.015625)"></use>
      <use xlink:href="#DejaVuSans-72" transform="translate(1085.664062 0.015625)"></use>
      <use xlink:href="#DejaVuSans-65" transform="translate(1126.777344 0.015625)"></use>
      <use xlink:href="#DejaVuSans-61" transform="translate(1188.300781 0.015625)"></use>
      <use xlink:href="#DejaVuSans-6d" transform="translate(1249.580078 0.015625)"></use>
     </g>
    </g>
   </g>
   <g id="line2d_21">
    <path d="M 88.478035 382.686763 
L 88.644686 382.639591 
L 88.82204 382.586664 
L 89.010688 382.527279 
L 89.211255 382.460648 
L 89.424399 382.385886 
L 89.650819 382.302003 
L 89.891253 382.207884 
L 90.146481 382.10228 
L 90.417327 381.983791 
L 90.704663 381.850844 
L 91.009406 381.701676 
L 91.332526 381.534305 
L 91.675046 381.346513 
L 92.038041 381.135807 
L 92.422645 380.89939 
L 92.830049 380.634126 
L 93.261505 380.336495 
L 93.718327 380.002548 
L 94.20189 379.627853 
L 94.713635 379.207438 
L 95.255069 378.735725 
L 95.827762 378.206454 
L 96.43335 377.612603 
L 97.073535 376.94629 
L 97.75008 376.198675 
L 98.464813 375.359838 
L 99.219619 374.418646 
L 100.01644 373.362612 
L 100.85727 372.177722 
L 101.744151 370.848254 
L 102.679166 369.356566 
L 103.664435 367.682865 
L 104.702106 365.804941 
L 105.79435 363.697876 
L 106.943352 361.33371 
L 108.151305 358.681073 
L 109.420402 355.704764 
L 110.752829 352.365291 
L 112.150763 348.61834 
L 113.616364 344.414193 
L 115.151774 339.697062 
L 116.75912 334.404354 
L 118.44051 328.465837 
L 120.198045 321.802713 
L 122.033821 314.326564 
L 123.949941 305.938186 
L 125.948527 296.526273 
L 128.031737 285.965931 
L 130.201778 274.117034 
L 132.460927 260.822352 
L 134.811554 245.905474 
L 137.256136 229.168461 
L 139.797282 210.389224 
L 142.437757 189.318573 
L 145.180495 165.676914 
L 148.028628 139.150536 
L 150.985497 109.387451 
L 154.054676 75.99272 
L 157.239984 38.523216 
L 160.347503 -1 
" clip-path="url(#p0931bad8cb)" style="fill: none; stroke: #1f77b4; stroke-width: 3"></path>
   </g>
   <g id="line2d_22">
    <path d="M 94.281678 382.686763 
L 94.802845 382.639591 
L 95.355103 382.586664 
L 95.940253 382.527279 
L 96.560202 382.460648 
L 97.216966 382.385886 
L 97.912675 382.302003 
L 98.649578 382.207884 
L 99.430053 382.10228 
L 100.256607 381.983791 
L 101.131887 381.850844 
L 102.058684 381.701676 
L 103.039941 381.534305 
L 104.078754 381.346513 
L 105.178385 381.135807 
L 106.342264 380.89939 
L 107.573994 380.634126 
L 108.877357 380.336495 
L 110.256322 380.002548 
L 111.715043 379.627853 
L 113.257867 379.207438 
L 114.889333 378.735725 
L 116.614179 378.206454 
L 118.437332 377.612603 
L 120.363917 376.94629 
L 122.399246 376.198675 
L 124.548816 375.359838 
L 126.818304 374.418646 
L 129.213549 373.362612 
L 131.740551 372.177722 
L 134.405448 370.848254 
L 137.214505 369.356566 
L 140.174095 367.682865 
L 143.290675 365.804941 
L 146.570768 363.697876 
L 150.020943 361.33371 
L 153.647788 358.681073 
L 157.457892 355.704764 
L 161.457825 352.365291 
L 165.654124 348.61834 
L 170.053279 344.414193 
L 174.661726 339.697062 
L 179.48585 334.404354 
L 184.531988 328.465837 
L 189.806445 321.802713 
L 195.315518 314.326564 
L 201.065522 305.938186 
L 207.06283 296.526273 
L 213.313918 285.965931 
L 219.825417 274.117034 
L 226.604165 260.822352 
L 233.65727 245.905474 
L 240.992171 229.168461 
L 248.616703 210.389224 
L 256.539157 189.318573 
L 264.768347 165.676914 
L 273.313667 139.150536 
L 282.185147 109.387451 
L 291.39351 75.99272 
L 300.950216 38.523216 
L 310.273471 -1 
" clip-path="url(#p0931bad8cb)" style="fill: none; stroke-dasharray: 11.1,4.8; stroke-dashoffset: 0; stroke: #1f77b4; stroke-width: 3"></path>
   </g>
   <g id="patch_3">
    <path d="M 96.619709 383.073354 
L 96.619709 113.234646 
" style="fill: none; stroke: #000000; stroke-linejoin: miter; stroke-linecap: square"></path>
   </g>
   <g id="patch_4">
    <path d="M 366.458418 383.073354 
L 366.458418 113.234646 
" style="fill: none; stroke: #000000; stroke-linejoin: miter; stroke-linecap: square"></path>
   </g>
   <g id="patch_5">
    <path d="M 96.619709 383.073354 
L 366.458418 383.073354 
" style="fill: none; stroke: #000000; stroke-linejoin: miter; stroke-linecap: square"></path>
   </g>
   <g id="patch_6">
    <path d="M 96.619709 113.234646 
L 366.458418 113.234646 
" style="fill: none; stroke: #000000; stroke-linejoin: miter; stroke-linecap: square"></path>
   </g>
   <g id="line2d_23">
    <path d="M 92.730967 382.211734 
L 93.158539 382.106601 
L 93.611633 381.988639 
L 94.091705 381.856283 
L 94.600286 381.707778 
L 95.138994 381.541153 
L 95.709535 381.354196 
L 96.313701 381.144427 
L 96.953382 380.909062 
L 97.630565 380.644979 
L 98.347334 380.348672 
L 99.105878 380.01621 
L 99.90849 379.643182 
L 100.757573 379.224638 
L 101.655635 378.755024 
L 102.605296 378.228108 
L 103.609284 377.636898 
L 104.670439 376.97355 
L 105.791705 376.229261 
L 106.976133 375.394156 
L 108.226877 374.457152 
L 109.547183 373.405816 
L 110.940392 372.226198 
L 112.409926 370.902645 
L 113.959279 369.417594 
L 115.592013 367.751339 
L 117.311741 365.88177 
L 119.122121 363.78408 
L 121.026837 361.430432 
L 123.029595 358.789596 
L 125.134106 355.82653 
L 127.344078 352.501914 
L 129.663206 348.771634 
L 132.095167 344.586192 
L 134.643616 339.890048 
L 137.312186 334.620887 
L 140.104493 328.708792 
L 143.024141 322.075312 
L 146.074739 314.632425 
L 149.259919 306.281369 
L 152.583351 296.91133 
L 156.048774 286.397973 
L 159.660021 274.601792 
L 163.421054 261.36626 
L 167.335988 246.515748 
L 171.409131 229.8532 
L 175.645014 211.157514 
L 180.048421 190.180608 
L 184.624424 166.644134 
L 189.378407 140.235775 
L 194.316095 110.605109 
L 199.443577 77.358954 
L 204.767334 40.056156 
L 210.188837 -1 
" clip-path="url(#p0931bad8cb)" style="fill: none; stroke: #ff7f0e; stroke-width: 3"></path>
   </g>
   <g id="line2d_24">
    <path d="M 107.27453 382.211734 
L 108.566402 382.106601 
L 109.934342 381.988639 
L 111.382737 381.856283 
L 112.916211 381.707778 
L 114.539641 381.541153 
L 116.258161 381.354196 
L 118.077178 381.144427 
L 120.002379 380.909062 
L 122.039739 380.644979 
L 124.195536 380.348672 
L 126.476351 380.01621 
L 128.889082 379.643182 
L 131.44095 379.224638 
L 134.139496 378.755024 
L 136.992593 378.228108 
L 140.008442 377.636898 
L 143.19557 376.97355 
L 146.562825 376.229261 
L 150.119372 375.394156 
L 153.874679 374.457152 
L 157.838502 373.405816 
L 162.020866 372.226198 
L 166.432046 370.902645 
L 171.08254 369.417594 
L 175.983036 367.751339 
L 181.144384 365.88177 
L 186.577561 363.78408 
L 192.293631 361.430432 
L 198.303715 358.789596 
L 204.618954 355.82653 
L 211.250476 352.501914 
L 218.209374 348.771634 
L 225.506683 344.586192 
L 233.153373 339.890048 
L 241.160349 334.620887 
L 249.538459 328.708792 
L 258.298525 322.075312 
L 267.451379 314.632425 
L 277.007914 306.281369 
L 286.979148 296.91133 
L 297.376301 286.397973 
L 308.210879 274.601792 
L 319.494763 261.36626 
L 331.240307 246.515748 
L 343.460437 229.8532 
L 356.168747 211.157514 
L 369.379595 190.180608 
L 383.108194 166.644134 
L 397.370701 140.235775 
L 412.184293 110.605109 
L 427.567242 77.358954 
L 433 64.670477 
" clip-path="url(#p0931bad8cb)" style="fill: none; stroke-dasharray: 11.1,4.8; stroke-dashoffset: 0; stroke: #ff7f0e; stroke-width: 3"></path>
   </g>
   <g id="line2d_25">
    <path d="M 97.85572 381.61973 
L 98.587218 381.442361 
L 99.361596 381.24335 
L 100.181257 381.020055 
L 101.04872 380.769515 
L 101.966629 380.488404 
L 102.937757 380.172992 
L 103.965001 379.819095 
L 105.051391 379.422015 
L 106.200088 378.976484 
L 107.414383 378.476591 
L 108.697698 377.915701 
L 110.053583 377.286372 
L 111.485713 376.580253 
L 112.997882 375.787975 
L 114.593998 374.899024 
L 116.278077 373.901605 
L 118.054229 372.782482 
L 119.926653 371.526806 
L 121.89962 370.117914 
L 123.977465 368.537111 
L 126.16457 366.763421 
L 128.46535 364.773308 
L 130.884242 362.540365 
L 133.425691 360.034961 
L 136.09414 357.223852 
L 138.894018 354.069736 
L 141.829744 350.530759 
L 144.905716 346.559962 
L 148.126323 342.104654 
L 151.49595 337.105716 
L 155.018995 331.496816 
L 158.699887 325.203527 
L 162.543114 318.14234 
L 166.553246 310.219558 
L 170.734974 301.33005 
L 175.093142 291.355859 
L 179.632781 280.164632 
L 184.359145 267.607868 
L 189.277746 253.518948 
L 194.394387 237.71092 
L 199.71519 219.97402 
L 205.246623 200.072892 
L 210.995527 177.743458 
L 216.969134 152.689422 
L 223.175092 124.57833 
L 229.621479 93.037167 
L 236.316825 57.6474 
L 243.27013 17.939428 
L 246.339656 -1 
" clip-path="url(#p0931bad8cb)" style="fill: none; stroke: #2ca02c; stroke-width: 3"></path>
   </g>
   <g id="line2d_26">
    <path d="M 122.716998 381.61973 
L 124.916892 381.442361 
L 127.245127 381.24335 
L 129.708923 381.020055 
L 132.315857 380.769515 
L 135.073878 380.488404 
L 137.991311 380.172992 
L 141.076866 379.819095 
L 144.339645 379.422015 
L 147.789141 378.976484 
L 151.43524 378.476591 
L 155.288217 377.915701 
L 159.358732 377.286372 
L 163.65782 376.580253 
L 168.196871 375.787975 
L 172.987621 374.899024 
L 178.04212 373.901605 
L 183.37271 372.782482 
L 188.991993 371.526806 
L 194.912793 370.117914 
L 201.148116 368.537111 
L 207.711115 366.763421 
L 214.615044 364.773308 
L 221.873217 362.540365 
L 229.498974 360.034961 
L 237.505647 357.223852 
L 245.906534 354.069736 
L 254.714889 350.530759 
L 263.943916 346.559962 
L 273.606782 342.104654 
L 283.716648 337.105716 
L 294.286712 331.496816 
L 305.330263 325.203527 
L 316.860766 318.14234 
L 328.891939 310.219558 
L 341.437857 301.33005 
L 354.513051 291.355859 
L 368.132617 280.164632 
L 382.312323 267.607868 
L 397.068706 253.518948 
L 412.419177 237.71092 
L 428.382103 219.97402 
L 433 214.436056 
" clip-path="url(#p0931bad8cb)" style="fill: none; stroke-dasharray: 11.1,4.8; stroke-dashoffset: 0; stroke: #2ca02c; stroke-width: 3"></path>
   </g>
   <g id="line2d_27">
    <path d="M 105.328036 381.375604 
L 106.501485 381.168448 
L 107.743476 380.936014 
L 109.057852 380.675219 
L 110.448652 380.382602 
L 111.920109 380.054281 
L 113.476655 379.685898 
L 115.12293 379.272566 
L 116.863779 378.808799 
L 118.704252 378.288445 
L 120.649611 377.704598 
L 122.705322 377.04951 
L 124.877053 376.31449 
L 127.170668 375.489784 
L 129.592221 374.564448 
L 132.147942 373.526205 
L 134.84423 372.361276 
L 137.687631 371.054205 
L 140.684825 369.587647 
L 143.842604 367.942142 
L 147.167852 366.095855 
L 150.667522 364.024287 
L 154.348612 361.699949 
L 158.218138 359.091999 
L 162.283121 356.165831 
L 166.550555 352.882617 
L 171.027402 349.19879 
L 175.720573 345.065468 
L 180.636922 340.427804 
L 185.783252 335.22426 
L 191.16632 329.385788 
L 196.792853 322.834914 
L 202.669578 315.484712 
L 208.803252 307.237651 
L 215.200706 297.984296 
L 221.868892 287.60186 
L 228.814942 275.952576 
L 236.046224 262.881864 
L 243.570408 248.216284 
L 251.39553 231.761233 
L 259.530057 213.298362 
L 267.982952 192.58268 
L 276.763738 169.339302 
L 285.882556 143.259803 
L 295.350222 113.998125 
L 305.178283 81.165981 
L 315.379058 44.32771 
L 325.965689 2.99449 
L 326.911972 -1 
" clip-path="url(#p0931bad8cb)" style="fill: none; stroke: #d62728; stroke-width: 3"></path>
   </g>
   <g id="line2d_28">
    <path d="M 145.170436 381.375604 
L 148.694165 381.168448 
L 152.423328 380.936014 
L 156.36947 380.675219 
L 160.544714 380.382602 
L 164.961767 380.054281 
L 169.63394 379.685898 
L 174.575155 379.272566 
L 179.799955 378.808799 
L 185.323504 378.288445 
L 191.161589 377.704598 
L 197.330616 377.04951 
L 203.847595 376.31449 
L 210.730125 375.489784 
L 217.996373 374.564448 
L 225.665038 373.526205 
L 233.755315 372.361276 
L 242.28685 371.054205 
L 251.279687 369.587647 
L 260.754209 367.942142 
L 270.731071 366.095855 
L 281.231134 364.024287 
L 292.275393 361.699949 
L 303.884907 359.091999 
L 316.080734 356.165831 
L 328.883867 352.882617 
L 342.315189 349.19879 
L 356.395435 345.065468 
L 371.145176 340.427804 
L 386.584819 335.22426 
L 402.734636 329.385788 
L 419.614816 322.834914 
L 433 317.254666 
" clip-path="url(#p0931bad8cb)" style="fill: none; stroke-dasharray: 11.1,4.8; stroke-dashoffset: 0; stroke: #d62728; stroke-width: 3"></path>
   </g>
   <g id="line2d_29">
    <path clip-path="url(#p0931bad8cb)" style="fill: none; stroke: #000000"></path>
   </g>
   <g id="line2d_30">
    <path clip-path="url(#p0931bad8cb)" style="fill: none; stroke-dasharray: 3.7,1.6; stroke-dashoffset: 0; stroke: #000000"></path>
   </g>
   <g id="legend_1">
    <g id="patch_7">
     <path d="M 114.206251 107.234646 
L 348.871876 107.234646 
L 348.871876 -2.047854 
L 114.206251 -2.047854 
z
" style="fill: #ffffff; stroke: #000000; stroke-linejoin: miter"></path>
    </g>
    <g id="line2d_31">
     <path d="M 119.006251 7.670271 
L 131.006251 7.670271 
L 143.006251 7.670271 
" style="fill: none; stroke: #1f77b4; stroke-width: 1.5; stroke-linejoin: miter"></path>
    </g>
    <g id="text_13">
     <!-- Ne  -->
     <g transform="translate(152.606251 11.870271) scale(0.12 -0.12)">
      <defs>
       <path id="DejaVuSans-4e" d="M 628 4666 
L 1478 4666 
L 3547 763 
L 3547 4666 
L 4159 4666 
L 4159 0 
L 3309 0 
L 1241 3903 
L 1241 0 
L 628 0 
L 628 4666 
z
" transform="scale(0.015625)"></path>
      </defs>
      <use xlink:href="#DejaVuSans-4e"></use>
      <use xlink:href="#DejaVuSans-65" x="74.804688"></use>
      <use xlink:href="#DejaVuSans-20" x="136.328125"></use>
     </g>
    </g>
    <g id="line2d_32">
     <path d="M 119.006251 25.284021 
L 131.006251 25.284021 
L 143.006251 25.284021 
" style="fill: none; stroke: #ff7f0e; stroke-width: 1.5; stroke-linejoin: miter"></path>
    </g>
    <g id="text_14">
     <!-- Ar  -->
     <g transform="translate(152.606251 29.484021) scale(0.12 -0.12)">
      <defs>
       <path id="DejaVuSans-41" d="M 2188 4044 
L 1331 1722 
L 3047 1722 
L 2188 4044 
z
M 1831 4666 
L 2547 4666 
L 4325 0 
L 3669 0 
L 3244 1197 
L 1141 1197 
L 716 0 
L 50 0 
L 1831 4666 
z
" transform="scale(0.015625)"></path>
      </defs>
      <use xlink:href="#DejaVuSans-41"></use>
      <use xlink:href="#DejaVuSans-72" x="68.408203"></use>
      <use xlink:href="#DejaVuSans-20" x="109.521484"></use>
     </g>
    </g>
    <g id="line2d_33">
     <path d="M 119.006251 42.897771 
L 131.006251 42.897771 
L 143.006251 42.897771 
" style="fill: none; stroke: #2ca02c; stroke-width: 1.5; stroke-linejoin: miter"></path>
    </g>
    <g id="text_15">
     <!-- Kr  -->
     <g transform="translate(152.606251 47.097771) scale(0.12 -0.12)">
      <defs>
       <path id="DejaVuSans-4b" d="M 628 4666 
L 1259 4666 
L 1259 2694 
L 3353 4666 
L 4166 4666 
L 1850 2491 
L 4331 0 
L 3500 0 
L 1259 2247 
L 1259 0 
L 628 0 
L 628 4666 
z
" transform="scale(0.015625)"></path>
      </defs>
      <use xlink:href="#DejaVuSans-4b"></use>
      <use xlink:href="#DejaVuSans-72" x="65.576172"></use>
      <use xlink:href="#DejaVuSans-20" x="106.689453"></use>
     </g>
    </g>
    <g id="line2d_34">
     <path d="M 119.006251 60.511521 
L 131.006251 60.511521 
L 143.006251 60.511521 
" style="fill: none; stroke: #d62728; stroke-width: 1.5; stroke-linejoin: miter"></path>
    </g>
    <g id="text_16">
     <!-- Xe  -->
     <g transform="translate(152.606251 64.711521) scale(0.12 -0.12)">
      <defs>
       <path id="DejaVuSans-58" d="M 403 4666 
L 1081 4666 
L 2241 2931 
L 3406 4666 
L 4084 4666 
L 2584 2425 
L 4184 0 
L 3506 0 
L 2194 1984 
L 872 0 
L 191 0 
L 1856 2491 
L 403 4666 
z
" transform="scale(0.015625)"></path>
      </defs>
      <use xlink:href="#DejaVuSans-58"></use>
      <use xlink:href="#DejaVuSans-65" x="64.005859"></use>
      <use xlink:href="#DejaVuSans-20" x="125.529297"></use>
     </g>
    </g>
    <g id="line2d_35">
     <path d="M 119.006251 78.125271 
L 131.006251 78.125271 
L 143.006251 78.125271 
" style="fill: none; stroke: #000000; stroke-width: 1.5; stroke-linejoin: miter"></path>
    </g>
    <g id="text_17">
     <!-- Lengyel model: GASC -->
     <g transform="translate(152.606251 82.325271) scale(0.12 -0.12)">
      <defs>
       <path id="DejaVuSans-4c" d="M 628 4666 
L 1259 4666 
L 1259 531 
L 3531 531 
L 3531 0 
L 628 0 
L 628 4666 
z
" transform="scale(0.015625)"></path>
       <path id="DejaVuSans-6e" d="M 3513 2113 
L 3513 0 
L 2938 0 
L 2938 2094 
Q 2938 2591 2744 2837 
Q 2550 3084 2163 3084 
Q 1697 3084 1428 2787 
Q 1159 2491 1159 1978 
L 1159 0 
L 581 0 
L 581 3500 
L 1159 3500 
L 1159 2956 
Q 1366 3272 1645 3428 
Q 1925 3584 2291 3584 
Q 2894 3584 3203 3211 
Q 3513 2838 3513 2113 
z
" transform="scale(0.015625)"></path>
       <path id="DejaVuSans-67" d="M 2906 1791 
Q 2906 2416 2648 2759 
Q 2391 3103 1925 3103 
Q 1463 3103 1205 2759 
Q 947 2416 947 1791 
Q 947 1169 1205 825 
Q 1463 481 1925 481 
Q 2391 481 2648 825 
Q 2906 1169 2906 1791 
z
M 3481 434 
Q 3481 -459 3084 -895 
Q 2688 -1331 1869 -1331 
Q 1566 -1331 1297 -1286 
Q 1028 -1241 775 -1147 
L 775 -588 
Q 1028 -725 1275 -790 
Q 1522 -856 1778 -856 
Q 2344 -856 2625 -561 
Q 2906 -266 2906 331 
L 2906 616 
Q 2728 306 2450 153 
Q 2172 0 1784 0 
Q 1141 0 747 490 
Q 353 981 353 1791 
Q 353 2603 747 3093 
Q 1141 3584 1784 3584 
Q 2172 3584 2450 3431 
Q 2728 3278 2906 2969 
L 2906 3500 
L 3481 3500 
L 3481 434 
z
" transform="scale(0.015625)"></path>
       <path id="DejaVuSans-79" d="M 2059 -325 
Q 1816 -950 1584 -1140 
Q 1353 -1331 966 -1331 
L 506 -1331 
L 506 -850 
L 844 -850 
Q 1081 -850 1212 -737 
Q 1344 -625 1503 -206 
L 1606 56 
L 191 3500 
L 800 3500 
L 1894 763 
L 2988 3500 
L 3597 3500 
L 2059 -325 
z
" transform="scale(0.015625)"></path>
       <path id="DejaVuSans-6c" d="M 603 4863 
L 1178 4863 
L 1178 0 
L 603 0 
L 603 4863 
z
" transform="scale(0.015625)"></path>
       <path id="DejaVuSans-6f" d="M 1959 3097 
Q 1497 3097 1228 2736 
Q 959 2375 959 1747 
Q 959 1119 1226 758 
Q 1494 397 1959 397 
Q 2419 397 2687 759 
Q 2956 1122 2956 1747 
Q 2956 2369 2687 2733 
Q 2419 3097 1959 3097 
z
M 1959 3584 
Q 2709 3584 3137 3096 
Q 3566 2609 3566 1747 
Q 3566 888 3137 398 
Q 2709 -91 1959 -91 
Q 1206 -91 779 398 
Q 353 888 353 1747 
Q 353 2609 779 3096 
Q 1206 3584 1959 3584 
z
" transform="scale(0.015625)"></path>
       <path id="DejaVuSans-64" d="M 2906 2969 
L 2906 4863 
L 3481 4863 
L 3481 0 
L 2906 0 
L 2906 525 
Q 2725 213 2448 61 
Q 2172 -91 1784 -91 
Q 1150 -91 751 415 
Q 353 922 353 1747 
Q 353 2572 751 3078 
Q 1150 3584 1784 3584 
Q 2172 3584 2448 3432 
Q 2725 3281 2906 2969 
z
M 947 1747 
Q 947 1113 1208 752 
Q 1469 391 1925 391 
Q 2381 391 2643 752 
Q 2906 1113 2906 1747 
Q 2906 2381 2643 2742 
Q 2381 3103 1925 3103 
Q 1469 3103 1208 2742 
Q 947 2381 947 1747 
z
" transform="scale(0.015625)"></path>
       <path id="DejaVuSans-3a" d="M 750 794 
L 1409 794 
L 1409 0 
L 750 0 
L 750 794 
z
M 750 3309 
L 1409 3309 
L 1409 2516 
L 750 2516 
L 750 3309 
z
" transform="scale(0.015625)"></path>
       <path id="DejaVuSans-47" d="M 3809 666 
L 3809 1919 
L 2778 1919 
L 2778 2438 
L 4434 2438 
L 4434 434 
Q 4069 175 3628 42 
Q 3188 -91 2688 -91 
Q 1594 -91 976 548 
Q 359 1188 359 2328 
Q 359 3472 976 4111 
Q 1594 4750 2688 4750 
Q 3144 4750 3555 4637 
Q 3966 4525 4313 4306 
L 4313 3634 
Q 3963 3931 3569 4081 
Q 3175 4231 2741 4231 
Q 1884 4231 1454 3753 
Q 1025 3275 1025 2328 
Q 1025 1384 1454 906 
Q 1884 428 2741 428 
Q 3075 428 3337 486 
Q 3600 544 3809 666 
z
" transform="scale(0.015625)"></path>
       <path id="DejaVuSans-53" d="M 3425 4513 
L 3425 3897 
Q 3066 4069 2747 4153 
Q 2428 4238 2131 4238 
Q 1616 4238 1336 4038 
Q 1056 3838 1056 3469 
Q 1056 3159 1242 3001 
Q 1428 2844 1947 2747 
L 2328 2669 
Q 3034 2534 3370 2195 
Q 3706 1856 3706 1288 
Q 3706 609 3251 259 
Q 2797 -91 1919 -91 
Q 1588 -91 1214 -16 
Q 841 59 441 206 
L 441 856 
Q 825 641 1194 531 
Q 1563 422 1919 422 
Q 2459 422 2753 634 
Q 3047 847 3047 1241 
Q 3047 1584 2836 1778 
Q 2625 1972 2144 2069 
L 1759 2144 
Q 1053 2284 737 2584 
Q 422 2884 422 3419 
Q 422 4038 858 4394 
Q 1294 4750 2059 4750 
Q 2388 4750 2728 4690 
Q 3069 4631 3425 4513 
z
" transform="scale(0.015625)"></path>
       <path id="DejaVuSans-43" d="M 4122 4306 
L 4122 3641 
Q 3803 3938 3442 4084 
Q 3081 4231 2675 4231 
Q 1875 4231 1450 3742 
Q 1025 3253 1025 2328 
Q 1025 1406 1450 917 
Q 1875 428 2675 428 
Q 3081 428 3442 575 
Q 3803 722 4122 1019 
L 4122 359 
Q 3791 134 3420 21 
Q 3050 -91 2638 -91 
Q 1578 -91 968 557 
Q 359 1206 359 2328 
Q 359 3453 968 4101 
Q 1578 4750 2638 4750 
Q 3056 4750 3426 4639 
Q 3797 4528 4122 4306 
z
" transform="scale(0.015625)"></path>
      </defs>
      <use xlink:href="#DejaVuSans-4c"></use>
      <use xlink:href="#DejaVuSans-65" x="53.962891"></use>
      <use xlink:href="#DejaVuSans-6e" x="115.486328"></use>
      <use xlink:href="#DejaVuSans-67" x="178.865234"></use>
      <use xlink:href="#DejaVuSans-79" x="242.341797"></use>
      <use xlink:href="#DejaVuSans-65" x="301.521484"></use>
      <use xlink:href="#DejaVuSans-6c" x="363.044922"></use>
      <use xlink:href="#DejaVuSans-20" x="390.828125"></use>
      <use xlink:href="#DejaVuSans-6d" x="422.615234"></use>
      <use xlink:href="#DejaVuSans-6f" x="520.027344"></use>
      <use xlink:href="#DejaVuSans-64" x="581.208984"></use>
      <use xlink:href="#DejaVuSans-65" x="644.685547"></use>
      <use xlink:href="#DejaVuSans-6c" x="706.208984"></use>
      <use xlink:href="#DejaVuSans-3a" x="733.992188"></use>
      <use xlink:href="#DejaVuSans-20" x="767.683594"></use>
      <use xlink:href="#DejaVuSans-47" x="799.470703"></use>
      <use xlink:href="#DejaVuSans-41" x="876.960938"></use>
      <use xlink:href="#DejaVuSans-53" x="945.369141"></use>
      <use xlink:href="#DejaVuSans-43" x="1008.845703"></use>
     </g>
    </g>
    <g id="line2d_36">
     <path d="M 119.006251 95.739021 
L 131.006251 95.739021 
L 143.006251 95.739021 
" style="fill: none; stroke-dasharray: 5.55,2.4; stroke-dashoffset: 0; stroke: #000000; stroke-width: 1.5; stroke-linejoin: miter"></path>
    </g>
    <g id="text_18">
     <!-- Lengyel model: 1D/2D informed -->
     <g transform="translate(152.606251 99.939021) scale(0.12 -0.12)">
      <defs>
       <path id="DejaVuSans-44" d="M 1259 4147 
L 1259 519 
L 2022 519 
Q 2988 519 3436 956 
Q 3884 1394 3884 2338 
Q 3884 3275 3436 3711 
Q 2988 4147 2022 4147 
L 1259 4147 
z
M 628 4666 
L 1925 4666 
Q 3281 4666 3915 4102 
Q 4550 3538 4550 2338 
Q 4550 1131 3912 565 
Q 3275 0 1925 0 
L 628 0 
L 628 4666 
z
" transform="scale(0.015625)"></path>
       <path id="DejaVuSans-66" d="M 2375 4863 
L 2375 4384 
L 1825 4384 
Q 1516 4384 1395 4259 
Q 1275 4134 1275 3809 
L 1275 3500 
L 2222 3500 
L 2222 3053 
L 1275 3053 
L 1275 0 
L 697 0 
L 697 3053 
L 147 3053 
L 147 3500 
L 697 3500 
L 697 3744 
Q 697 4328 969 4595 
Q 1241 4863 1831 4863 
L 2375 4863 
z
" transform="scale(0.015625)"></path>
      </defs>
      <use xlink:href="#DejaVuSans-4c"></use>
      <use xlink:href="#DejaVuSans-65" x="53.962891"></use>
      <use xlink:href="#DejaVuSans-6e" x="115.486328"></use>
      <use xlink:href="#DejaVuSans-67" x="178.865234"></use>
      <use xlink:href="#DejaVuSans-79" x="242.341797"></use>
      <use xlink:href="#DejaVuSans-65" x="301.521484"></use>
      <use xlink:href="#DejaVuSans-6c" x="363.044922"></use>
      <use xlink:href="#DejaVuSans-20" x="390.828125"></use>
      <use xlink:href="#DejaVuSans-6d" x="422.615234"></use>
      <use xlink:href="#DejaVuSans-6f" x="520.027344"></use>
      <use xlink:href="#DejaVuSans-64" x="581.208984"></use>
      <use xlink:href="#DejaVuSans-65" x="644.685547"></use>
      <use xlink:href="#DejaVuSans-6c" x="706.208984"></use>
      <use xlink:href="#DejaVuSans-3a" x="733.992188"></use>
      <use xlink:href="#DejaVuSans-20" x="767.683594"></use>
      <use xlink:href="#DejaVuSans-31" x="799.470703"></use>
      <use xlink:href="#DejaVuSans-44" x="863.09375"></use>
      <use xlink:href="#DejaVuSans-2f" x="940.095703"></use>
      <use xlink:href="#DejaVuSans-32" x="973.787109"></use>
      <use xlink:href="#DejaVuSans-44" x="1037.410156"></use>
      <use xlink:href="#DejaVuSans-20" x="1114.412109"></use>
      <use xlink:href="#DejaVuSans-69" x="1146.199219"></use>
      <use xlink:href="#DejaVuSans-6e" x="1173.982422"></use>
      <use xlink:href="#DejaVuSans-66" x="1237.361328"></use>
      <use xlink:href="#DejaVuSans-6f" x="1272.566406"></use>
      <use xlink:href="#DejaVuSans-72" x="1333.748047"></use>
      <use xlink:href="#DejaVuSans-6d" x="1373.111328"></use>
      <use xlink:href="#DejaVuSans-65" x="1470.523438"></use>
      <use xlink:href="#DejaVuSans-64" x="1532.046875"></use>
     </g>
    </g>
   </g>
  </g>
 </g>
 <defs>
  <clipPath id="p0931bad8cb">
   <rect x="96.619709" y="113.234646" width="269.838709" height="269.838709"></rect>
  </clipPath>
 </defs>
</svg>